#!OML:ASF E:\id_vita\Project 1\Capture day 1\Session 1\Male1.ASF
:FULLY-SPECIFIED
:DEGREES
712
root 26.5132 13.3579 -5.07921 -142.622 -84.3438 191.561
lowerback 21.7903 3.82831 -8.81152
upperback 4.99265 2.72554 0.664604
thorax -7.11864 1.3187 5.01779
lowerneck -20.4838 1.54459 -0.11105
upperneck 11.649 2.57216 -2.79092
head 6.9319 0.963496 -0.595499
rclavicle -4.45278e-014 -3.99557e-014
rhumerus 61.5998 22.9975 -49.1972
rradius 26.2331
rwrist 21.0058
rhand -14.7626 43.4573
rfingers 7.12502
rthumb 11.3937 13.7868
lclavicle -4.45278e-014 -3.99557e-014
lhumerus 57.8774 -14.6463 49.2824
lradius 21.5104
lwrist -19.4305
lhand -42.3065 73.7148
lfingers 7.12502
lthumb -15.1904 256.863
rfemur -78.8146 3.28393 22.1225
rtibia 80.9835
rfoot -43.3959 -20.6575
rtoes -16.986
lfemur -11.8852 -2.74522 -9.48205
ltibia 30.9927
lfoot 0.730428 8.74975
ltoes 37.0093
713
root 26.4411 13.3808 -5.08775 -143.75 -84.4491 192.579
lowerback 22.1784 3.84014 -8.6777
upperback 4.86136 2.72533 0.618971
thorax -7.45932 1.33361 4.87902
lowerneck -20.8307 1.4937 -0.389261
upperneck 12.0981 2.5178 -2.30077
head 7.12399 0.962821 -0.393706
rclavicle 7.35503e-015 5.51627e-015
rhumerus 61.3443 23.1932 -49.3084
rradius 26.2036
rwrist 20.8273
rhand -14.6714 43.3582
rfingers 7.12502
rthumb 11.4816 13.6926
lclavicle 7.35503e-015 5.51627e-015
lhumerus 57.7267 -14.963 49.1101
lradius 21.4524
lwrist -19.4437
lhand -42.1105 73.8592
lfingers 7.12502
lthumb -15.0016 256.704
rfemur -78.0833 3.35983 22.2195
rtibia 80.5137
rfoot -43.288 -21.097
rtoes -17.7196
lfemur -12.1803 -2.80734 -9.51025
ltibia 31.9418
lfoot 0.920286 8.32215
ltoes 35.4682
714
root 26.3717 13.4026 -5.09775 -145.529 -84.6125 194.358
lowerback 22.3078 3.86785 -8.50558
upperback 4.79574 2.78899 0.633941
thorax -7.60303 1.369 4.77382
lowerneck -20.6854 1.45213 -0.528725
upperneck 11.7964 2.42435 -1.89861
head 6.99199 0.955602 -0.252215
rclavicle -2.72335e-014 -7.90169e-014
rhumerus 61.2797 23.1368 -49.3658
rradius 25.9032
rwrist 20.1831
rhand -14.5822 43.1133
rfingers 7.12502
rthumb 11.5677 13.4525
lclavicle -2.72335e-014 -7.90169e-014
lhumerus 57.9095 -15.3504 48.7342
lradius 21.4002
lwrist -19.0329
lhand -42.3385 74.1033
lfingers 7.12502
lthumb -15.2213 256.477
rfemur -77.4711 3.42641 22.4361
rtibia 80.0134
rfoot -42.9848 -21.7106
rtoes -18.8647
lfemur -12.6833 -2.92279 -9.38112
ltibia 33.0431
lfoot 0.735332 7.42985
ltoes 32.9279
715
root 26.2936 13.4311 -5.11034 -147.681 -84.8362 196.523
lowerback 22.3391 3.82284 -8.2709
upperback 4.79283 2.7828 0.644992
thorax -7.61271 1.3621 4.65309
lowerneck -20.7843 1.47077 -0.500597
upperneck 11.751 2.42345 -1.78974
head 6.99172 0.966975 -0.220722
rclavicle -2.36554e-014 8.64713e-015
rhumerus 61.0897 22.9737 -49.9428
rradius 25.6791
rwrist 19.9518
rhand -14.4529 42.9053
rfingers 7.12502
rthumb 11.6924 13.2516
lclavicle -2.36554e-014 8.64713e-015
lhumerus 57.9254 -15.4041 48.8246
lradius 21.3381
lwrist -19.2132
lhand -42.6015 74.0912
lfingers 7.12502
lthumb -15.4746 256.508
rfemur -76.7854 3.4355 22.7408
rtibia 79.4545
rfoot -42.8341 -22.0937
rtoes -19.5127
lfemur -13.3591 -3.03167 -9.15703
ltibia 34.2663
lfoot 0.240315 6.32965
ltoes 30.466
716
root 26.2137 13.4634 -5.11913 -148.416 -85.0183 197.145
lowerback 22.4744 3.76662 -8.13837
upperback 4.82514 2.72363 0.626394
thorax -7.63287 1.32928 4.57183
lowerneck -20.8307 1.55638 -0.210991
upperneck 11.7161 2.5137 -2.13508
head 6.99739 0.990682 -0.369484
rclavicle 2.78299e-015 4.90004e-014
rhumerus 60.7491 22.9831 -50.5637
rradius 25.6543
rwrist 20.3214
rhand -14.3579 42.7707
rfingers 7.12502
rthumb 11.784 13.1222
lclavicle 2.78299e-015 4.90004e-014
lhumerus 57.7461 -15.248 49.4115
lradius 21.164
lwrist -20.0147
lhand -42.5533 74.3113
lfingers 7.12502
lthumb -15.4282 256.284
rfemur -75.9702 3.348 22.8824
rtibia 78.8743
rfoot -42.8619 -22.3056
rtoes -19.7161
lfemur -14.0064 -3.20245 -9.15568
ltibia 35.6104
lfoot -0.332628 4.4092
ltoes 27.5733
717
root 26.137 13.4934 -5.12896 -149.025 -85.2314 197.567
lowerback 22.661 3.7532 -8.07432
upperback 4.90408 2.70165 0.656547
thorax -7.63847 1.31248 4.5722
lowerneck -20.6465 1.61966 0.0941061
upperneck 11.3438 2.55734 -2.47728
head 6.85502 0.998817 -0.527354
rclavicle 2.56432e-014 -4.96962e-017
rhumerus 60.7472 23.0789 -50.3689
rradius 25.6011
rwrist 20.0435
rhand -14.2747 42.6253
rfingers 7.12502
rthumb 11.8643 12.9814
lclavicle 2.56432e-014 -4.96962e-017
lhumerus 57.7012 -15.1338 49.9923
lradius 20.8856
lwrist -20.771
lhand -42.3438 74.4036
lfingers 7.12502
lthumb -15.2263 256.177
rfemur -75.1189 3.23807 23.0159
rtibia 78.3038
rfoot -42.8558 -22.5343
rtoes -19.9557
lfemur -14.6336 -3.3553 -9.16229
ltibia 37.1014
lfoot -1.00455 2.69484
ltoes 23.7646
718
root 26.0643 13.5199 -5.13831 -150.213 -85.4639 198.615
lowerback 22.8493 3.72175 -7.95398
upperback 4.95408 2.66898 0.669286
thorax -7.6724 1.29198 4.52386
lowerneck -21.3064 1.47262 -0.632645
upperneck 12.15 2.41055 -1.38612
head 7.20039 0.986292 -0.0635404
rclavicle -2.50469e-014 -3.18055e-015
rhumerus 60.8708 23.1119 -50.0271
rradius 25.485
rwrist 19.437
rhand -13.626 43.8316
rfingers 7.12502
rthumb 12.4897 14.2249
lclavicle -2.50469e-014 -3.18055e-015
lhumerus 57.6839 -15.1459 50.2413
lradius 20.7005
lwrist -21.0775
lhand -42.3725 74.1475
lfingers 7.12502
lthumb -15.254 256.435
rfemur -74.3427 3.12717 23.2129
rtibia 77.7559
rfoot -43.0403 -22.4367
rtoes -19.687
lfemur -15.3422 -3.46845 -9.10264
ltibia 38.7304
lfoot -1.86509 1.24242
ltoes 18.9809
719
root 25.9949 13.5451 -5.14367 -150.428 -85.5737 198.679
lowerback 23.0458 3.69744 -7.83212
upperback 4.98999 2.63186 0.543092
thorax -7.71896 1.26857 4.32181
lowerneck -21.0726 1.50013 -0.363103
upperneck 11.7479 2.36341 -1.41268
head 7.03284 0.979728 -0.124407
rclavicle -5.48646e-014 -8.59744e-015
rhumerus 60.6883 23.0665 -50.189
rradius 25.512
rwrist 19.724
rhand -13.5012 44.0228
rfingers 7.12502
rthumb 12.61 14.4234
lclavicle -5.48646e-014 -8.59744e-015
lhumerus 57.7224 -15.2428 50.2709
lradius 20.6077
lwrist -21.1363
lhand -42.6383 74.3081
lfingers 7.12502
lthumb -15.51 256.294
rfemur -73.5632 3.03011 23.2849
rtibia 77.2296
rfoot -43.4175 -22.1855
rtoes -19.037
lfemur -16.1047 -3.61712 -9.20729
ltibia 40.4947
lfoot -2.90416 -0.0631285
ltoes 14.9091
720
root 25.9274 13.5721 -5.1499 -150.93 -85.5596 198.984
lowerback 23.3138 3.7399 -7.80789
upperback 4.9927 2.64979 0.412046
thorax -7.85044 1.27673 4.1509
lowerneck -20.964 1.53565 -0.00609998
upperneck 11.679 2.32692 -1.53102
head 6.99792 0.969084 -0.22573
rclavicle -4.39314e-014 -5.63058e-014
rhumerus 60.3781 23.1333 -50.348
rradius 25.6541
rwrist 20.0024
rhand -13.4671 44.2526
rfingers 7.12502
rthumb 12.6429 14.6552
lclavicle -4.39314e-014 -5.63058e-014
lhumerus 57.8689 -15.465 50.0874
lradius 20.4692
lwrist -21.0439
lhand -42.6878 74.6292
lfingers 7.12502
lthumb -15.5577 255.977
rfemur -72.7289 3.093 23.295
rtibia 76.6777
rfoot -43.6276 -22.2069
rtoes -18.9082
lfemur -16.9516 -3.59365 -9.36023
ltibia 42.416
lfoot -3.9473 -1.24614
ltoes 9.52254
721
root 25.86 13.5974 -5.15608 -152.695 -85.6514 200.636
lowerback 23.4118 3.7948 -7.77697
upperback 5.06664 2.71658 0.43484
thorax -7.82773 1.30219 4.1369
lowerneck -21.2218 1.50448 0.0566778
upperneck 11.8568 2.26532 -1.4971
head 7.09806 0.942695 -0.229801
rclavicle 2.16675e-014 4.81059e-014
rhumerus 60.2522 23.1117 -50.2241
rradius 25.7475
rwrist 19.8609
rhand -13.4899 44.4027
rfingers 7.12502
rthumb 12.6209 14.804
lclavicle 2.16675e-014 4.81059e-014
lhumerus 58.0607 -15.448 50.3795
lradius 20.2637
lwrist -21.4151
lhand -42.5365 74.5029
lfingers 7.12502
lthumb -15.412 256.092
rfemur -71.9799 3.24995 23.3663
rtibia 76.0897
rfoot -43.8321 -22.2692
rtoes -18.7758
lfemur -17.9812 -3.42504 -9.37291
ltibia 44.4824
lfoot -4.66578 -2.22892
ltoes 11.4971
722
root 25.7915 13.6217 -5.16349 -155.882 -85.8027 203.86
lowerback 23.3475 3.77011 -7.61439
upperback 5.11779 2.73268 0.473851
thorax -7.73513 1.30194 4.08503
lowerneck -21.3083 1.48869 -0.0292006
upperneck 11.8394 2.24605 -1.36346
head 7.1034 0.942024 -0.173952
rclavicle -4.27387e-014 -8.49804e-015
rhumerus 60.3288 23.2462 -49.8801
rradius 25.815
rwrist 19.7268
rhand -13.3435 44.3268
rfingers 7.12502
rthumb 12.762 14.7369
lclavicle -4.27387e-014 -8.49804e-015
lhumerus 58.1036 -15.2975 50.759
lradius 20.1102
lwrist -21.9229
lhand -42.7869 74.3926
lfingers 7.12502
lthumb -15.6531 256.221
rfemur -71.3695 3.51074 23.5147
rtibia 75.4447
rfoot -43.924 -22.4404
rtoes -18.4663
lfemur -19.1953 -3.22118 -9.23947
ltibia 46.6709
lfoot -5.14696 -2.95475
ltoes 10.111
723
root 25.7223 13.6518 -5.16937 -158.545 -85.8861 206.487
lowerback 23.4761 3.75752 -7.48063
upperback 5.10064 2.73473 0.464458
thorax -7.81518 1.30264 3.99401
lowerneck -21.3446 1.48058 -0.0641208
upperneck 11.8707 2.22139 -1.21894
head 7.11703 0.942293 -0.123429
rclavicle -6.47044e-014 -4.47266e-016
rhumerus 60.2984 23.4562 -49.8037
rradius 25.7801
rwrist 19.7408
rhand -13.2094 44.2282
rfingers 7.12502
rthumb 12.8914 14.6464
lclavicle -6.47044e-014 -4.47266e-016
lhumerus 57.9956 -15.3045 51.0082
lradius 19.9953
lwrist -22.3088
lhand -43.1595 74.6327
lfingers 7.12502
lthumb -16.0119 256.009
rfemur -70.6544 3.70452 23.646
rtibia 74.7445
rfoot -43.6945 -22.8198
rtoes -18.5472
lfemur -20.4155 -3.00266 -9.19541
ltibia 48.9411
lfoot -5.27825 -3.52694
ltoes 9.53375
724
root 25.6502 13.6858 -5.1696 -162.267 -85.9832 210.109
lowerback 23.7249 3.71328 -7.1725
upperback 5.05095 2.72618 0.439904
thorax -7.98448 1.2979 3.78613
lowerneck -21.3692 1.48987 -0.0251351
upperneck 12.0102 2.21308 -1.14765
head 7.16645 0.946124 -0.106459
rclavicle -8.75646e-014 -3.92103e-014
rhumerus 60.1424 23.6889 -49.9128
rradius 25.7148
rwrist 19.8452
rhand -13.1947 44.1788
rfingers 7.12502
rthumb 12.9055 14.5979
lclavicle -8.75646e-014 -3.92103e-014
lhumerus 57.7354 -15.2805 51.5221
lradius 19.8817
lwrist -22.9554
lhand -43.0347 75.1998
lfingers 7.12502
lthumb -15.8917 255.432
rfemur -69.8219 3.73803 23.9155
rtibia 74.0149
rfoot -43.3881 -23.136
rtoes -19.0242
lfemur -21.618 -2.73587 -9.1238
ltibia 51.2604
lfoot -4.89147 -4.06048
ltoes 15.7088
725
root 25.5765 13.7185 -5.17518 -166.686 -85.9476 214.487
lowerback 23.7967 3.71984 -6.98421
upperback 5.0585 2.77372 0.456464
thorax -8.01201 1.3161 3.68042
lowerneck -21.3164 1.49959 -0.185158
upperneck 12.0761 2.24118 -0.956382
head 7.17542 0.970537 -0.0144473
rclavicle 5.4964e-014 4.48756e-014
rhumerus 60.1833 23.6936 -50.0622
rradius 25.5469
rwrist 19.6128
rhand -13.1369 44.0996
rfingers 7.12502
rthumb 12.9613 14.5222
lclavicle 5.4964e-014 4.48756e-014
lhumerus 57.6015 -15.1618 51.9255
lradius 19.802
lwrist -23.44
lhand -42.6899 75.3703
lfingers 7.12502
lthumb -15.5597 255.236
rfemur -69.0458 3.94305 24.1977
rtibia 73.2804
rfoot -43.2082 -23.207
rtoes -19.0064
lfemur -22.8332 -2.30684 -9.02845
ltibia 53.5658
lfoot -5.10511 -3.62355
ltoes 7.19789
726
root 25.5057 13.7475 -5.18 -168.362 -85.8733 216.077
lowerback 23.8613 3.76917 -7.03744
upperback 5.14991 2.81326 0.458684
thorax -7.9507 1.32832 3.70114
lowerneck -21.472 1.50016 -0.444067
upperneck 12.1971 2.27393 -0.687299
head 7.23423 0.998597 0.12145
rclavicle -6.54002e-014 -6.01075e-014
rhumerus 60.2822 23.388 -50.5639
rradius 25.2429
rwrist 19.4258
rhand -13.0323 44.0799
rfingers 7.12502
rthumb 13.0621 14.5089
lclavicle -6.54002e-014 -6.01075e-014
lhumerus 57.5949 -14.9326 52.3565
lradius 19.7033
lwrist -24.0282
lhand -42.5187 74.7242
lfingers 7.12502
lthumb -15.3948 255.869
rfemur -68.2777 4.2009 24.2156
rtibia 72.5772
rfoot -43.2342 -23.0865
rtoes -18.2796
lfemur -24.0209 -1.98085 -9.15478
ltibia 55.8562
lfoot -5.30021 -3.33091
ltoes 10.8965
